<?xml version="1.0" standalone="no"?>
<!DOCTYPE svg PUBLIC "-//W3C//DTD SVG 20010904//EN"
 "http://www.w3.org/TR/2001/REC-SVG-20010904/DTD/svg10.dtd">
<svg version="1.0" xmlns="http://www.w3.org/2000/svg"
 width="500.000000pt" height="500.000000pt" viewBox="0 0 500.000000 500.000000"
 preserveAspectRatio="xMidYMid meet">
<metadata>
Created by potrace 1.14, written by Peter Selinger 2001-2017
</metadata>
<g transform="translate(0.000000,500.000000) scale(0.100000,-0.100000)"
fill="#000000" stroke="none">
<path d="M3877 4913 c-14 -83 -56 -143 -198 -283 -90 -88 -149 -154 -168 -190
l-31 -55 4 63 4 63 -52 -53 c-28 -29 -117 -105 -197 -170 -161 -129 -271 -234
-309 -297 -24 -39 -48 -56 -36 -26 3 8 8 37 11 63 3 26 8 58 11 72 3 14 8 40
10 59 l4 33 -37 -29 c-73 -56 -293 -172 -403 -212 -19 -7 -44 -17 -55 -22 -11
-4 -99 -38 -195 -75 -214 -82 -433 -187 -521 -251 -230 -167 -364 -372 -443
-678 -9 -35 4 116 14 160 15 66 59 184 91 244 17 29 28 56 25 58 -5 5 -133
-104 -192 -165 -57 -59 -172 -230 -203 -302 -54 -126 -50 -122 -48 -62 2 28 0
52 -3 52 -3 0 -26 -44 -51 -98 -48 -100 -115 -287 -144 -402 -18 -70 -20 -78
-35 -160 -6 -30 -12 -66 -15 -79 -2 -13 -7 -46 -10 -75 -3 -28 -8 -67 -10 -86
-6 -47 -6 -296 0 -340 10 -67 35 -152 55 -180 l20 -28 -33 7 c-39 9 -102 5
-125 -8 -16 -10 -16 -10 0 -11 28 0 125 -50 153 -78 35 -34 40 -63 26 -141
-45 -243 -153 -510 -286 -707 -77 -114 -76 -133 8 -92 28 14 111 45 182 69 72
23 202 66 290 95 184 60 308 96 415 119 41 9 84 18 95 21 11 3 31 7 44 10 12
3 90 20 171 39 81 19 159 36 171 39 33 6 128 24 159 30 29 5 82 14 125 21 43
8 266 19 360 19 153 -1 271 -20 295 -49 25 -30 -22 -82 -210 -230 -101 -80
-169 -153 -240 -257 -92 -137 -102 -242 -28 -290 92 -59 267 -74 443 -38 54
11 107 22 119 24 63 12 392 130 496 178 25 11 103 45 174 75 124 52 328 151
439 211 110 61 234 126 378 198 83 42 149 78 147 80 -7 6 -189 -58 -338 -118
-137 -56 -152 -63 -273 -117 -37 -17 -70 -31 -73 -31 -3 0 -24 -9 -47 -19
-225 -103 -576 -234 -712 -266 -261 -62 -455 -76 -531 -39 -99 49 -68 104 169
306 229 194 317 297 317 371 0 34 -41 77 -95 100 -126 53 -409 66 -675 32 -30
-4 -64 -8 -75 -10 -148 -18 -406 -75 -605 -135 -218 -65 -859 -305 -1004 -376
-16 -8 -30 -13 -32 -12 -1 2 17 32 41 68 42 64 103 180 144 272 52 116 152
407 164 478 21 114 138 461 218 643 205 466 476 886 794 1226 47 50 248 250
263 261 6 5 -27 -39 -38 -50 -102 -102 -311 -356 -449 -547 -84 -116 -262
-389 -294 -453 -7 -14 -28 -52 -47 -85 -111 -199 -238 -480 -309 -689 -34 -96
-71 -230 -71 -252 0 -2 15 -4 34 -4 43 0 150 -22 239 -50 38 -12 71 -19 74
-16 9 9 -116 94 -164 112 -60 22 -75 34 -41 34 42 0 158 39 228 78 272 148
539 430 857 907 129 194 160 242 338 530 179 289 310 485 378 568 99 121 189
197 232 197 34 0 10 9 -40 15 -28 4 -60 8 -73 10 -13 2 -53 7 -90 10 -87 9
-97 19 -21 23 212 9 543 144 662 269 41 44 122 175 177 288 89 183 131 359
125 523 -4 104 -9 122 -18 65z"/>
</g>
</svg>
